<svg xmlns="http://www.w3.org/2000/svg" xmlns:xlink="http://www.w3.org/1999/xlink" viewBox="0 0 768 774" version="1.1" width="500px" height="504px">
    <!-- Generator: Sketch 52.6 (67491) - http://www.bohemiancoding.com/sketch -->
    <title>marlboro</title>
    <desc>Created with Sketch.</desc>
    <g id="Page-1" stroke="none" stroke-width="1" fill="none" fill-rule="evenodd" fill-color-id="-1" stroke-color-id="-1" recolor-fill="true" recolor-stroke="true">
        <g id="marlboro" fill-color-id="-1" stroke-color-id="-1" recolor-fill="true" recolor-stroke="true">
            <path d="M337.085,503.039 L337.085,519.172 L346.697,519.172 L346.697,750.19 L337.085,750.19 L337.085,769.07 L394.239,769.07 L394.239,750.19 L383.94,750.19 L383.94,503.04 L337.085,503.039 Z M390.291,503.039 L390.291,519.172 L403.507,519.172 L403.507,688.402 C403.476,689.803 403.335,691.261 403.335,692.692 C403.335,694.106 403.475,695.426 403.507,696.812 L403.507,750.189 L397.328,750.189 L397.328,769.069 L433.028,769.069 L433.028,767.695 C438.665,770.912 444.466,772.673 449.676,772.673 C461.044,772.673 473.909,765.087 482.114,749.673 C490.319,734.261 494.472,715.215 494.472,692.693 C494.472,669.979 490.319,650.903 482.114,635.539 C473.909,620.174 461.044,612.54 449.676,612.539 C446.256,612.54 442.603,613.228 438.863,614.599 L439.378,503.039 L390.291,503.039 Z M5.321,564.139 L5.321,580.273 L16.477,580.273 L16.477,750.19 L4.806,750.19 L4.806,769.07 L38.789,769.07 L38.789,750.19 L30.207,750.19 L30.207,582.333 L56.982,769.068 L83.585,769.068 L110.53,581.99 L110.53,750.19 L96.8,750.19 L96.8,769.07 L157.729,769.07 L157.729,750.19 L144.513,750.19 L144.513,580.273 L157.729,580.273 L157.729,564.139 L98.859,564.14 L80.667,684.282 L62.646,564.14 L5.321,564.139 Z M722.228,612.883 C710.86,612.883 696.278,620.441 688.073,635.71 C679.868,650.98 675.887,670.131 675.887,693.035 C675.887,715.653 679.867,734.652 688.073,750.017 C696.278,765.382 710.86,773.016 722.228,773.016 C733.596,773.016 746.461,765.43 754.666,750.017 C762.871,734.604 767.024,715.557 767.024,693.035 C767.024,670.322 762.871,651.247 754.666,635.882 C746.461,620.517 733.596,612.883 722.228,612.883 Z M546.991,613.055 C535.623,613.055 521.041,620.613 512.837,635.882 C504.631,651.152 500.651,670.302 500.651,693.207 C500.651,715.825 504.631,734.824 512.837,750.189 C521.042,765.554 535.623,773.187 546.991,773.188 C558.359,773.188 571.225,765.602 579.43,750.188 C587.635,734.776 591.787,715.73 591.787,693.207 C591.787,670.494 587.635,651.418 579.43,636.053 C571.225,620.689 558.36,613.055 546.991,613.055 Z M202.526,613.741 C184.684,614.593 168.086,626.22 168.028,642.404 C168.002,649.562 169.522,655.32 172.318,659.567 C175.115,663.814 178.731,665.917 183.131,665.917 C193.605,665.981 202.554,662.07 199.745,649.222 C197.63,646.125 194.399,640.674 194.933,637.77 C196.766,627.806 210.691,629.21 212.513,639.636 C213.66,646.19 213.853,655.284 213.853,666.432 L213.853,684.969 C212.112,684.587 210.127,684.282 208.018,684.282 L202.526,684.11 C178.096,684.165 158.931,695.851 158.931,727.362 C158.931,748.398 170.761,770.956 192.056,770.956 C207.03,770.956 211.696,760.364 216.428,751.219 C218.353,758.185 218.848,760.417 222.607,764.091 C226.365,767.765 233.103,769.24 238.054,769.24 L252.471,769.24 L252.471,750.189 L242.344,750.189 L242.344,677.245 C242.344,657.3 238.808,641.775 231.704,630.561 C224.598,619.348 214.81,613.741 202.526,613.741 Z M320.266,614.256 C310.179,615.208 303.264,621.783 301.729,631.763 L300.871,631.763 L300.871,615.8 L259.851,615.8 L259.851,634.68 L269.291,634.68 L269.291,750.188 L259.851,750.188 L259.851,769.068 L318.549,769.068 L318.549,750.188 L305.677,750.188 L305.677,655.275 C305.27,643.076 308.367,634.258 318.377,627.471 C313.158,639.591 316.454,655.409 329.534,659.394 C333.567,659.394 336.761,657.805 339.144,654.417 C341.529,651.029 342.749,646.28 342.749,640.172 C342.749,632.06 341.152,625.654 337.944,621.121 C334.734,616.588 330.32,614.255 324.728,614.255 C323.161,614.158 321.706,614.119 320.265,614.255 L320.266,614.256 Z M654.09,614.256 C644.003,615.176 637.089,621.611 635.553,631.591 L634.695,631.591 L634.695,615.801 L593.675,615.801 L593.675,634.681 L603.115,634.681 L603.115,750.189 L593.675,750.189 L593.675,769.069 L652.373,769.069 L652.373,750.189 L639.501,750.189 L639.501,655.105 C639.095,642.905 642.191,634.088 652.201,627.3 C646.982,639.42 650.279,655.41 663.358,659.395 C667.392,659.395 670.586,657.806 672.969,654.418 C675.353,651.03 676.573,646.281 676.574,640.173 C676.574,632.061 674.977,625.655 671.768,621.121 C668.559,616.589 664.144,614.256 658.552,614.256 C656.986,614.159 655.531,614.125 654.09,614.256 Z M449.676,627.986 C462.272,627.176 460.698,648.378 460.832,660.082 L461.004,692.52 L461.004,725.13 C461.382,737.453 461.46,753.1 449.676,753.621 C441.874,753.967 439.306,747.096 438.348,739.033 L438.692,639.143 C440.082,632.919 443.088,628.411 449.676,627.987 L449.676,627.986 Z M722.228,628.33 C734.823,627.52 733.25,648.721 733.384,660.425 L733.384,725.474 C733.762,737.796 734.012,753.444 722.228,753.964 C708.848,754.557 710.343,734.486 710.213,722.213 L710.213,663.686 C710.191,649.48 708.048,629.242 722.228,628.33 Z M546.991,628.502 C559.587,627.692 558.014,648.892 558.147,660.597 L558.147,725.645 C558.525,737.968 558.776,753.615 546.991,754.136 C533.611,754.729 535.106,734.658 534.977,722.384 L534.977,663.857 C534.954,649.652 532.812,629.414 546.991,628.502 Z M207.331,696.468 L210.078,696.983 L213.854,698.013 L213.854,720.84 C213.854,729.429 212.759,736.596 210.421,742.465 C208.083,748.335 205.22,751.219 202.011,751.219 C199.169,751.219 197.275,749.087 196.175,744.697 C195.075,740.307 194.459,732.521 194.459,721.355 C194.459,712.965 195.372,709.927 197.205,704.535 C199.039,699.143 202.381,696.468 207.332,696.468 L207.331,696.468 Z" id="Shape" fill="#FFFFFFFF" fill-rule="nonzero" fill-color-id="0" stroke-color-id="-1" recolor-fill="true" recolor-stroke="true"/>
            <polygon id="Path" fill="#FFFFFFFF" points="0 527.754 0 0.5 766.165 0.5 766.165 527.754 383.083 291.588" fill-color-id="1" stroke-color-id="-1" recolor-fill="true" recolor-stroke="true"/>
        </g>
    </g>
</svg>